<?xml version="1.0" encoding="UTF-8" standalone="no"?>
<!-- Created with Inkscape (http://www.inkscape.org/) -->

<svg
   xmlns:dc="http://purl.org/dc/elements/1.1/"
   xmlns:cc="http://creativecommons.org/ns#"
   xmlns:rdf="http://www.w3.org/1999/02/22-rdf-syntax-ns#"
   xmlns:svg="http://www.w3.org/2000/svg"
   xmlns="http://www.w3.org/2000/svg"
   xmlns:xlink="http://www.w3.org/1999/xlink"
   xmlns:sodipodi="http://sodipodi.sourceforge.net/DTD/sodipodi-0.dtd"
   xmlns:inkscape="http://www.inkscape.org/namespaces/inkscape"
   width="800"
   height="400"
   id="svg2"
   version="1.1"
   inkscape:version="0.48.2 r9819"
   sodipodi:docname="progressbar.svg">
  <defs
     id="defs4" />
  <sodipodi:namedview
     id="base"
     pagecolor="#ffffff"
     bordercolor="#666666"
     borderopacity="1.0"
     inkscape:pageopacity="0.0"
     inkscape:pageshadow="2"
     inkscape:zoom="7.9195959"
     inkscape:cx="99.453367"
     inkscape:cy="-55.922233"
     inkscape:document-units="px"
     inkscape:current-layer="layer1"
     showgrid="true"
     inkscape:window-width="1920"
     inkscape:window-height="1138"
     inkscape:window-x="-8"
     inkscape:window-y="-8"
     inkscape:window-maximized="1">
    <inkscape:grid
       type="xygrid"
       id="grid2985"
       empspacing="5"
       visible="true"
       enabled="true"
       snapvisiblegridlinesonly="true" />
  </sodipodi:namedview>
  <metadata
     id="metadata7">
    <rdf:RDF>
      <cc:Work
         rdf:about="">
        <dc:format>image/svg+xml</dc:format>
        <dc:type
           rdf:resource="http://purl.org/dc/dcmitype/StillImage" />
        <dc:title></dc:title>
      </cc:Work>
    </rdf:RDF>
  </metadata>
  <g
     inkscape:label="Layer 1"
     inkscape:groupmode="layer"
     id="layer1"
     transform="translate(0,-652.36217)">
    <image
       y="652.36218"
       x="0"
       id="image3779"
       xlink:href="file:///C:/dev/projects/game/image_source/Story/Anfang.jpg"
       height="400"
       width="800" />
    <path
       style="fill:none;stroke:#000000;stroke-width:0.53257412px;stroke-linecap:butt;stroke-linejoin:miter;stroke-opacity:1"
       d="m 30.27934,832.6601 11.51697,-9.85103"
       id="path2987"
       inkscape:connector-curvature="0" />
    <path
       style="fill:none;stroke:#000000;stroke-width:0.53257412px;stroke-linecap:butt;stroke-linejoin:miter;stroke-opacity:1"
       d="m 41.79631,822.80907 241.85646,0 2.87924,2.46276 2.87925,-2.46276"
       id="path2989"
       inkscape:connector-curvature="0"
       sodipodi:nodetypes="cccc" />
    <path
       style="fill:none;stroke:#000000;stroke-width:0.53257412px;stroke-linecap:butt;stroke-linejoin:miter;stroke-opacity:1"
       d="m 289.41126,822.80907 17.27546,0 0,27.09034 -5.75849,4.92552 0,7.38827 -109.41125,0 L 180,852.36217 l -74.86033,0 -2.87924,2.46276"
       id="path2991"
       inkscape:connector-curvature="0"
       sodipodi:nodetypes="ccccccccc" />
    <path
       style="fill:none;stroke:#000000;stroke-width:0.53257412px;stroke-linecap:butt;stroke-linejoin:miter;stroke-opacity:1"
       d="m 102.26043,854.82493 -2.87925,-2.46276 -69.10184,0"
       id="path2993"
       inkscape:connector-curvature="0"
       sodipodi:nodetypes="ccc" />
    <path
       style="fill:none;stroke:#000000;stroke-width:0.53257412px;stroke-linecap:butt;stroke-linejoin:miter;stroke-opacity:1"
       d="m 30.27934,832.6601 0,19.70207"
       id="path2995"
       inkscape:connector-curvature="0" />
    <path
       style="fill:#00ff00;stroke:#00ce00;stroke-width:10;stroke-linecap:butt;stroke-linejoin:miter;stroke-miterlimit:4;stroke-opacity:1;stroke-dasharray:none"
       d="m 260,1102.3622 0,20"
       id="path3864"
       inkscape:connector-curvature="0" />
    <text
       xml:space="preserve"
       style="font-size:14px;font-style:normal;font-variant:normal;font-weight:normal;font-stretch:normal;text-align:start;line-height:125%;letter-spacing:0px;word-spacing:0px;writing-mode:lr-tb;text-anchor:start;fill:#00ff00;fill-opacity:1;stroke:none;font-family:Verdana;-inkscape-font-specification:Verdana"
       x="330"
       y="1132.3622"
       id="text3866"
       sodipodi:linespacing="125%"><tspan
         sodipodi:role="line"
         id="tspan3868"
         x="330"
         y="1132.3622">Loading Map</tspan></text>
    <path
       style="fill:#50508c;fill-opacity:0.8627451;stroke:#00ce00;stroke-width:7.14285707;stroke-miterlimit:4;stroke-opacity:1;stroke-dasharray:none"
       d="m 186.22049,204.37273 -5.35714,-4.61267 -38.3054,-0.0238 c -33.47888,-0.0208 -38.41932,0.11351 -39.20956,1.06569 -0.81034,0.97641 -1.02907,0.97641 -2.10798,0 -1.04385,-0.94467 -5.776374,-1.08945 -35.611873,-1.08945 l -34.408042,0 0,-9.59359 0,-9.5936 5.379964,-4.69212 5.379964,-4.69212 120.961147,0 c 106.64963,0 121.06635,0.12677 121.85035,1.07143 1.13226,1.36429 2.43918,1.36429 3.57143,0 0.69908,-0.84233 2.70327,-1.07143 9.37317,-1.07143 l 8.48398,0 0,12.859 0,12.859 -2.85715,2.58126 c -2.59093,2.34076 -2.85714,2.90627 -2.85714,6.06957 l 0,3.48831 -54.46429,-0.006 -54.46428,-0.006 -5.35715,-4.61268 0,1e-5 z"
       id="path3880"
       inkscape:connector-curvature="0"
       transform="translate(0,652.36217)" />
    <path
       style="fill:none;stroke:#000000;stroke-width:1px;stroke-linecap:butt;stroke-linejoin:miter;stroke-opacity:1"
       d="m 0,470 10,-10 c 23.924777,0.14671 47.17625,-0.0244 70,0 6.703204,0.007 3.364239,-5.0069 10,-5 10.73478,0.0112 23.50076,-0.45849 35,0 2.64534,0.10547 2.33131,4.88041 5,5 33.35569,1.49476 69.74078,0.069 100,0 l 0,20 -10,10 0,10 -90,0 -10,-10 -120,0 z"
       id="path3886"
       inkscape:connector-curvature="0"
       transform="translate(0,652.36217)"
       sodipodi:nodetypes="ccsssscccccccc" />
  </g>
</svg>
